<?xml version="1.0" encoding="UTF-8" standalone="no"?><!DOCTYPE svg PUBLIC "-//W3C//DTD SVG 1.1//EN" "http://www.w3.org/Graphics/SVG/1.1/DTD/svg11.dtd"><svg width="100%" height="100%" viewBox="0 0 24 24" version="1.1" xmlns="http://www.w3.org/2000/svg" xmlns:xlink="http://www.w3.org/1999/xlink" xml:space="preserve" style="fill-rule:evenodd;clip-rule:evenodd;stroke-linejoin:round;stroke-miterlimit:1.41421;"><rect id="tertium.-action.-search" x="0" y="0" width="24" height="24" style="fill:none;"/><path id="path3373" d="M13.534,5.867c-1.179,0 -2.359,0.447 -3.256,1.344c-1.55,1.55 -1.754,3.943 -0.625,5.723l-3.787,3.785l1.414,1.414l3.788,-3.785c1.779,1.129 4.17,0.925 5.72,-0.625c1.794,-1.794 1.794,-4.718 0,-6.512c-0.897,-0.897 -2.074,-1.344 -3.254,-1.344l0,0Zm0,0.992c0.922,0 1.841,0.353 2.547,1.059c1.412,1.412 1.412,3.686 0,5.098c-1.411,1.411 -3.684,1.411 -5.095,0c-1.412,-1.412 -1.412,-3.686 0,-5.098c0.705,-0.706 1.627,-1.059 2.548,-1.059l0,0Z" style="fill:#1a1a1a;fill-rule:nonzero;"/></svg>