<?xml version="1.0" encoding="UTF-8" standalone="no"?><!DOCTYPE svg PUBLIC "-//W3C//DTD SVG 1.1//EN" "http://www.w3.org/Graphics/SVG/1.1/DTD/svg11.dtd"><svg width="100%" height="100%" viewBox="0 0 24 24" version="1.1" xmlns="http://www.w3.org/2000/svg" xmlns:xlink="http://www.w3.org/1999/xlink" xml:space="preserve" style="fill-rule:evenodd;clip-rule:evenodd;stroke-linejoin:round;stroke-miterlimit:1.41421;"><rect id="tertium.-calendar" x="0" y="0" width="24" height="24" style="fill:none;"/><path id="Path" d="M8.33,6.1l0,1.18l-0.613,0c-0.677,0 -1.217,0.529 -1.217,1.18l-0.006,8.26c0,0.652 0.546,1.18 1.222,1.18l8.568,0c0.675,0 1.222,-0.528 1.222,-1.18l0,-8.26c0,-0.651 -0.547,-1.18 -1.222,-1.18l-0.614,0l0,-1.18l-1.223,0l0,1.18l-4.894,0l0,-1.18l-1.223,0l0,0Zm-0.613,4.13l8.567,0l0,6.49l-8.567,0l0,-6.49l0,0Z" style="fill:#1a1a1a;"/></svg>