<?xml version="1.0" encoding="UTF-8" standalone="no"?><!DOCTYPE svg PUBLIC "-//W3C//DTD SVG 1.1//EN" "http://www.w3.org/Graphics/SVG/1.1/DTD/svg11.dtd"><svg width="100%" height="100%" viewBox="0 0 24 24" version="1.1" xmlns="http://www.w3.org/2000/svg" xmlns:xlink="http://www.w3.org/1999/xlink" xml:space="preserve" style="fill-rule:evenodd;clip-rule:evenodd;stroke-linejoin:round;stroke-miterlimit:1.41421;"><rect id="tertium.-action.-cancel" x="0" y="0" width="24" height="24" style="fill:none;"/><path id="path32" d="M6,11.365l6.038,-0.735l-1.588,-1.586l-0.02,-0.018c0.417,-0.261 0.797,-0.425 1.608,-0.425c2.47,0 4.471,1.948 4.471,4.352c0,2.403 -2.001,4.351 -4.471,4.351c-1.784,0 -3.32,-1.02 -4.038,-2.49c0,0 -1.377,0.576 -1.308,0.682c0.969,1.929 2.994,3.259 5.346,3.259c3.292,0 5.962,-2.597 5.962,-5.802c0,-3.206 -2.67,-5.803 -5.962,-5.803c-1.1,0 -1.642,0.237 -2.438,0.59l-1.462,-2.495l-2.138,6.12Z" style="fill:#1a1a1a;"/></svg>