<?xml version="1.0" encoding="UTF-8" standalone="no"?><!DOCTYPE svg PUBLIC "-//W3C//DTD SVG 1.1//EN" "http://www.w3.org/Graphics/SVG/1.1/DTD/svg11.dtd"><svg width="100%" height="100%" viewBox="0 0 24 24" version="1.1" xmlns="http://www.w3.org/2000/svg" xmlns:xlink="http://www.w3.org/1999/xlink" xml:space="preserve" style="fill-rule:evenodd;clip-rule:evenodd;stroke-linejoin:round;stroke-miterlimit:1.41421;"><rect id="tertium.-social.-behance" x="0" y="0" width="24" height="24" style="fill:none;"/><path id="path15" d="M5.675,8.047l0,7.906l4.348,0c0,0 2.175,0.067 2.175,-2.373c0,0 0.16,-1.868 -1.417,-1.868c0,0 1.194,-0.092 1.194,-1.524c0,-1.43 -0.809,-2.135 -2.05,-2.135l-4.25,-0.006l0,0Zm8.302,0.79l0,0.793l3.16,0l0,-0.793l-3.16,0Zm-6.722,0.395l2.174,0c0,0 0.746,0.013 0.746,0.977c0,0.999 -0.746,1.001 -0.746,1.001l-2.174,0l0,-1.978l0,0Zm8.302,0.79c-2.97,0 -2.964,2.967 -2.964,2.967c0,0 -0.198,2.964 2.964,2.964c0,0 2.765,-0.002 2.765,-2.373l-1.42,0c0,0 -0.16,1.185 -1.345,1.185c0,0 -1.408,0.001 -1.408,-1.58l4.176,0c0,-0.791 -0.001,-3.163 -2.768,-3.163l0,0Zm0,1.188c1.211,0 1.345,1.185 1.345,1.185l-2.753,0c0,0 0.196,-1.185 1.408,-1.185Zm-8.302,1.185l2.373,0c0,0 1.185,0.012 1.185,1.185c0.001,1.174 -1.013,1.185 -1.185,1.185l-2.373,0l0,-2.37l0,0Z" style="fill:#1a1a1a;fill-rule:nonzero;"/></svg>