<?xml version="1.0" encoding="UTF-8" standalone="no"?><!DOCTYPE svg PUBLIC "-//W3C//DTD SVG 1.1//EN" "http://www.w3.org/Graphics/SVG/1.1/DTD/svg11.dtd"><svg width="100%" height="100%" viewBox="0 0 24 24" version="1.1" xmlns="http://www.w3.org/2000/svg" xmlns:xlink="http://www.w3.org/1999/xlink" xml:space="preserve" style="fill-rule:evenodd;clip-rule:evenodd;stroke-linejoin:round;stroke-miterlimit:1.41421;"><rect id="tertium.-slim.-link" x="0" y="0" width="24" height="24" style="fill:none;"/><path id="path4141" d="M5.323,9.1l0.004,5.798l6.192,-0.002l0,-1.943l-1,0l0,0.945l-4.194,0l-0.002,-3.798l4.194,0l-0.006,0.949l1,0.004l0.01,-1.953l-6.198,0Zm7.049,0l0,1.937l1,0l0,-0.937l4.305,0l0,3.8l-4.393,-0.002l0,-0.945l-1,0l0,1.943l6.393,0.004l0,-5.8l-6.305,0Zm-3.309,2.396l0,1l5.739,0l0,-1l-5.739,0Z" style="fill:#1a1a1a;fill-rule:nonzero;"/></svg>