<?xml version="1.0" encoding="UTF-8" standalone="no"?><!DOCTYPE svg PUBLIC "-//W3C//DTD SVG 1.1//EN" "http://www.w3.org/Graphics/SVG/1.1/DTD/svg11.dtd"><svg width="100%" height="100%" viewBox="0 0 24 24" version="1.1" xmlns="http://www.w3.org/2000/svg" xmlns:xlink="http://www.w3.org/1999/xlink" xml:space="preserve" style="fill-rule:evenodd;clip-rule:evenodd;stroke-linejoin:round;stroke-miterlimit:1.41421;"><rect id="tertium.-file.-excel" x="0" y="0" width="24" height="24" style="fill:none;"/><path id="rect3364.-3.-3.-3.-2" d="M6.393,7.514l2.304,3.439l-2.304,2.395l1.691,0l1.309,-1.362l0.91,1.36l3.391,0l-2.309,-3.432l2.309,-2.4l-1.692,0.006l-1.312,1.363l-0.916,-1.363l-3.381,-0.006l0,0Zm0,6.281l3.391,0l0,2.691l-3.391,0l0,-2.691Zm3.912,0l3.391,0l0,2.691l-3.391,0l0,-2.691Zm3.912,0l3.39,0l0,2.691l-3.39,0l0,-2.691Zm0,-3.139l3.39,0l0,2.691l-3.39,0l0,-2.691Zm0,-3.139l3.39,0l0,2.691l-3.39,0l0,-2.691Z" style="fill:#1a1a1a;fill-rule:nonzero;"/></svg>