<?xml version="1.0" encoding="UTF-8" standalone="no"?><!DOCTYPE svg PUBLIC "-//W3C//DTD SVG 1.1//EN" "http://www.w3.org/Graphics/SVG/1.1/DTD/svg11.dtd"><svg width="100%" height="100%" viewBox="0 0 24 24" version="1.1" xmlns="http://www.w3.org/2000/svg" xmlns:xlink="http://www.w3.org/1999/xlink" xml:space="preserve" style="fill-rule:evenodd;clip-rule:evenodd;stroke-linejoin:round;stroke-miterlimit:1.41421;"><rect id="tertium.-social.-github" x="0" y="0" width="24" height="24" style="fill:none;"/><path id="path3360" d="M12.038,4.694c-0.496,0.006 -1.011,0.059 -1.542,0.164c-7.152,1.423 -8.214,11.4 -1.512,14.213c0.956,0.402 1.058,0.342 1.093,-0.636c0.029,-0.825 0.028,-0.825 -0.655,-0.82c-1.087,0.006 -1.481,-0.214 -1.916,-1.072c-0.14,-0.276 -0.436,-0.668 -0.656,-0.869c-0.459,-0.42 -0.434,-0.642 0.06,-0.534c0.447,0.099 0.712,0.295 1.018,0.757c0.622,0.941 2.015,1.128 2.279,0.307c0.064,-0.201 0.181,-0.44 0.26,-0.53c0.129,-0.148 0.095,-0.171 -0.34,-0.236c-2.472,-0.371 -3.844,-3.239 -2.499,-5.222c0.219,-0.322 0.174,-0.438 0.192,-0.995c0.024,-0.735 0.229,-1.295 0.229,-1.295c0,0 0.468,-0.021 1.275,0.209c0.466,0.133 0.617,0.227 0.962,0.329c0.11,0.017 0.229,0.012 0.408,-0.022c0.707,-0.135 1.981,-0.131 2.627,0.008c0.205,0.043 0.33,0.06 0.449,0.046c0.267,-0.081 0.438,-0.169 0.765,-0.314c0.719,-0.318 1.389,-0.221 1.389,-0.221c0,0 0.242,0.646 0.217,1.416c-0.011,0.321 -0.061,0.456 0.04,0.57c1.575,1.8 0.356,4.935 -2.119,5.446c-0.602,0.124 -0.602,0.124 -0.399,0.535c0.166,0.335 0.213,0.682 0.257,1.872c0.064,1.775 0.061,1.773 1.487,1.059c7.258,-3.634 4.069,-14.246 -3.369,-14.165l0,0Zm-4.903,10.641c-0.032,0.001 -0.058,0.011 -0.07,0.028c-0.002,0.003 -0.004,0.006 -0.005,0.01c-0.013,0.035 0.023,0.083 0.085,0.112c0.068,0.031 0.144,0.028 0.169,-0.006c0.002,-0.003 0.004,-0.007 0.005,-0.01c0.013,-0.036 -0.023,-0.083 -0.084,-0.112c-0.033,-0.015 -0.068,-0.023 -0.1,-0.022l0,0Zm0.353,0.284c-0.013,0 -0.025,0.003 -0.035,0.009c-0.003,0.002 -0.005,0.004 -0.008,0.006c-0.03,0.029 -0.019,0.093 0.027,0.148c0.004,0.004 0.008,0.009 0.012,0.013c0.049,0.052 0.114,0.074 0.15,0.051c0.003,-0.001 0.005,-0.003 0.008,-0.006c0.03,-0.029 0.018,-0.092 -0.027,-0.147c-0.036,-0.044 -0.086,-0.073 -0.127,-0.074l0,0Zm0.294,0.386c-0.01,0 -0.02,0.003 -0.028,0.007c-0.044,0.025 -0.038,0.102 0.012,0.171c0.05,0.069 0.127,0.106 0.171,0.081c0.043,-0.025 0.038,-0.102 -0.012,-0.171c-0.039,-0.055 -0.098,-0.091 -0.143,-0.088l0,0Zm0.365,0.41c-0.02,0.001 -0.036,0.007 -0.047,0.017c-0.003,0.003 -0.005,0.005 -0.007,0.007c-0.028,0.037 -0.003,0.106 0.057,0.157c0.064,0.056 0.148,0.074 0.185,0.04c0.002,-0.002 0.004,-0.004 0.006,-0.007c0.029,-0.037 0.004,-0.105 -0.056,-0.157c-0.043,-0.037 -0.096,-0.059 -0.138,-0.057l0,0Zm0.528,0.298c-0.043,0.002 -0.076,0.017 -0.089,0.042c-0.001,0.002 -0.003,0.005 -0.004,0.008c-0.014,0.045 0.032,0.101 0.106,0.13c0.079,0.031 0.164,0.02 0.187,-0.024c0.002,-0.003 0.003,-0.006 0.004,-0.009c0.015,-0.044 -0.031,-0.101 -0.105,-0.13c-0.033,-0.012 -0.068,-0.018 -0.099,-0.017l0,0Zm1.289,0.028c-0.024,0.001 -0.049,0.006 -0.073,0.014c-0.08,0.029 -0.137,0.092 -0.126,0.141c0.011,0.049 0.086,0.066 0.167,0.038c0.08,-0.028 0.136,-0.091 0.126,-0.141c-0.008,-0.032 -0.044,-0.052 -0.094,-0.052l0,0Zm-0.643,0.085c-0.076,0.002 -0.138,0.036 -0.146,0.08c-0.001,0.003 -0.001,0.006 -0.001,0.009c-0.001,0.046 0.06,0.087 0.139,0.092c0.085,0.006 0.163,-0.029 0.173,-0.079c0.009,-0.049 -0.053,-0.095 -0.138,-0.102c-0.009,0 -0.018,-0.001 -0.027,0l0,0Z" style="fill:#1a1a1a;fill-rule:nonzero;"/></svg>