<?xml version="1.0" standalone="no"?>
<!DOCTYPE svg PUBLIC "-//W3C//DTD SVG 1.1//EN" "http://www.w3.org/Graphics/SVG/1.1/DTD/svg11.dtd" >
<svg xmlns="http://www.w3.org/2000/svg">
<metadata>Generated by IcoMoon</metadata>
<defs>
<font id="icomoon" horiz-adv-x="1024">
<font-face units-per-em="1024" ascent="960" descent="-64" />
<missing-glyph horiz-adv-x="1024" />
<glyph unicode="&#x20;" horiz-adv-x="512" d="" />
<glyph unicode="&#xe900;" glyph-name="tertium-action-cancel" d="M256 475.093l257.621 31.36-67.755 67.669-0.853 0.768c17.792 11.136 34.005 18.133 68.608 18.133 105.387 0 190.763-83.115 190.763-185.685 0-102.528-85.376-185.643-190.763-185.643-76.117 0-141.653 43.52-172.288 106.24 0 0-58.752-24.576-55.808-29.099 41.344-82.304 127.744-139.051 228.096-139.051 140.459 0 254.379 110.805 254.379 247.552 0 136.789-113.92 247.595-254.379 247.595-46.933 0-70.059-10.112-104.021-25.173l-62.379 106.453-91.221-261.12z" />
<glyph unicode="&#xe901;" glyph-name="tertium-action-close" d="M761.856 637.995l-59.861 59.861-439.851-439.851 59.861-59.861 439.851 439.851zM701.995 198.144l59.861 59.861-439.851 439.851-59.861-59.861 439.851-439.851z" />
<glyph unicode="&#xe902;" glyph-name="tertium-action-exit" d="M637.312 542.677v-59.947h-181.291v-63.232h181.291v-59.008l129.237 91.093-64.683 45.483-64.555 45.611zM257.451 651.563v-407.125h322.176v118.485h-64.427v-54.187h-193.408v278.528h193.408v-46.080h64.427v110.379h-322.176z" />
<glyph unicode="&#xe903;" glyph-name="tertium-action-mail" d="M273.92 624.469v-352.939h476.16v352.939h-476.16zM320.768 579.029h381.056l-189.824-130.901-191.232 130.901zM320.853 544.128l191.829-142.848 189.227 141.781 0.683-209.749v-14.251h-381.184l-0.555 225.067z" />
<glyph unicode="&#xe904;" glyph-name="tertium-action-search" d="M577.451 709.675c-50.304 0-100.651-19.072-138.923-57.344-66.133-66.133-74.837-168.235-26.667-244.181l-161.579-161.493 60.331-60.331 161.621 161.493c75.904-48.171 177.92-39.467 244.053 26.667 76.544 76.544 76.544 201.301 0 277.845-38.272 38.272-88.491 57.344-138.837 57.344v0zM577.451 667.349c39.339 0 78.549-15.061 108.672-45.184 60.245-60.245 60.245-157.269 0-217.515-60.203-60.203-157.184-60.203-217.387 0-60.245 60.245-60.245 157.269 0 217.515 30.080 30.123 69.419 45.184 108.715 45.184v0z" />
<glyph unicode="&#xe905;" glyph-name="tertium-arrow-down" d="M750.464 406.827l-237.525-238.507-239.403 237.44 60.075 60.587 135.765-134.613v395.947h85.333v-396.416l135.339 135.723 60.416-60.16z" />
<glyph unicode="&#xe906;" glyph-name="tertium-arrow-left" d="M470.827 686.464l-238.507-237.525 237.44-239.403 60.587 60.075-134.613 135.765h395.947v85.333h-396.416l135.723 135.339-60.16 60.416z" />
<glyph unicode="&#xe907;" glyph-name="tertium-arrow-right" d="M553.173 686.464l238.507-237.525-237.44-239.403-60.587 60.075 134.613 135.765h-395.947v85.333h396.416l-135.723 135.339 60.16 60.416z" />
<glyph unicode="&#xe908;" glyph-name="tertium-arrow-up" d="M750.464 489.173l-237.525 238.507-239.403-237.44 60.075-60.587 135.765 134.613v-395.947h85.333v396.416l135.339-135.723 60.416 60.16z" />
<glyph unicode="&#xe909;" glyph-name="tertium-calendar" d="M355.413 699.733v-50.347h-26.155c-28.885 0-51.925-22.571-51.925-50.347l-0.256-352.427c0-27.819 23.296-50.347 52.139-50.347h365.568c28.8 0 52.139 22.528 52.139 50.347v352.427c0 27.776-23.339 50.347-52.139 50.347h-26.197v50.347h-52.181v-50.347h-208.811v50.347h-52.181zM329.259 523.52h365.525v-276.907h-365.525v276.907z" />
<glyph unicode="&#xe90a;" glyph-name="tertium-checkbox-checked" d="M691.243 631.68l-246.656-246.699-111.829 111.872-60.331-60.373 172.16-172.16 306.987 307.029-60.331 60.331z" />
<glyph unicode="&#xe90b;" glyph-name="tertium-checkbox-empty" d="M760.875 694.741v-497.792h-497.749v497.792h497.749zM760.875 765.824h-497.749c-39.125 0-71.125-32-71.125-71.083v-497.792c0-39.125 32-71.125 71.125-71.125h497.749c39.125 0 71.125 32 71.125 71.125v497.792c0 39.083-32 71.083-71.125 71.083z" />
<glyph unicode="&#xe90c;" glyph-name="tertium-chevron-down" d="M740.523 633.387l70.144-70.144-300.629-300.629-300.587 300.629 70.144 70.144 230.443-230.485 230.485 230.485z" />
<glyph unicode="&#xe90d;" glyph-name="tertium-chevron-left" d="M697.387 678.485l-70.144 70.144-300.629-300.629 300.629-300.629 70.144 70.144-230.485 230.485 230.485 230.485z" />
<glyph unicode="&#xe90e;" glyph-name="tertium-chevron-right" d="M326.613 678.485l70.144 70.144 300.629-300.629-300.629-300.629-70.144 70.144 230.485 230.485-230.485 230.485z" />
<glyph unicode="&#xe90f;" glyph-name="tertium-chevron-up" d="M742.485 262.613l70.144 70.144-300.629 300.629-300.629-300.629 70.144-70.144 230.485 230.485 230.485-230.485z" />
<glyph unicode="&#xe910;" glyph-name="tertium-file-excel" d="M272.768 639.403l98.304-146.731-98.304-102.187h72.149l55.851 58.112 38.827-58.027h144.683l-98.517 146.432 98.517 102.4-72.192-0.256-55.979-58.155-39.083 58.155-144.256 0.256zM272.768 371.413h144.683v-114.816h-144.683v114.816zM439.68 371.413h144.683v-114.816h-144.683v114.816zM606.592 371.413h144.64v-114.816h-144.64v114.816zM606.592 505.344h144.64v-114.816h-144.64v114.816zM606.592 639.275h144.64v-114.816h-144.64v114.816z" />
<glyph unicode="&#xe911;" glyph-name="tertium-slim-action-close" d="M309.504 682.581l-32.085-32.085 202.496-202.496-202.496-202.496 32.085-32.085 202.496 202.496 202.496-202.496 32.085 32.085-202.496 202.496 202.496 202.496-32.085 32.085-202.496-202.496-202.496 202.496z" />
<glyph unicode="&#xe912;" glyph-name="tertium-slim-action-enter" d="M697.643 680.107v-348.331h-150.784c0 21.376 0.171 40.789 0 75.435l-205.056-75.435h-2.517v-0.896l-52.565-19.328 52.565-19.328v-0.085h0.256l207.317-76.245c0.171 33.92 0 54.912 0 76.245h190.421v387.968h-39.637z" />
<glyph unicode="&#xe913;" glyph-name="tertium-slim-arrow-down" d="M490.667 727.595v-477.525l-159.659 159.701-30.165-30.208c70.4-70.357 140.757-140.757 211.157-211.157 70.4 70.4 140.757 140.8 211.157 211.157l-30.165 30.208-159.659-159.701v477.525h-42.667z" />
<glyph unicode="&#xe914;" glyph-name="tertium-slim-arrow-left" d="M791.595 424.491h-477.525l159.701-159.659-30.208-30.165c-70.357 70.4-140.757 140.757-211.157 211.157 70.4 70.4 140.8 140.8 211.157 211.157l30.208-30.165-159.701-159.659h477.525v-42.667z" />
<glyph unicode="&#xe915;" glyph-name="tertium-slim-arrow-right" d="M232.405 424.491h477.525l-159.701-159.659 30.208-30.165c70.357 70.4 140.757 140.757 211.157 211.157-70.4 70.4-140.8 140.8-211.157 211.157l-30.208-30.165 159.701-159.659h-477.525v-42.667z" />
<glyph unicode="&#xe916;" glyph-name="tertium-slim-arrow-up" d="M531.157 168.405v477.525l159.659-159.701 30.165 30.208c-70.357 70.357-140.757 140.757-211.157 211.157-70.4-70.4-140.757-140.8-211.157-211.157l30.165-30.208 159.659 159.701v-477.525h42.667z" />
<glyph unicode="&#xe917;" glyph-name="tertium-slim-checkbox-checked" d="M706.347 606.891l-261.76-261.76-126.933 126.891-30.165-30.165 157.099-157.056 291.925 291.925-30.165 30.165z" />
<glyph unicode="&#xe918;" glyph-name="tertium-slim-link" d="M227.115 571.733l0.171-247.381 264.192 0.085v82.901h-42.667v-40.32h-178.944l-0.085 162.048h178.944l-0.256-40.491 42.667-0.171 0.427 83.328h-264.448zM527.872 571.733v-82.645h42.667v39.979h183.68v-162.133l-187.435 0.085v40.32h-42.667v-82.901l272.768-0.171v247.467h-269.013zM386.688 469.504v-42.667h244.864v42.667h-244.864z" />
<glyph unicode="&#xe919;" glyph-name="tertium-slim-menu-hamburger" d="M250.411 602.155v-42.752h523.179v42.752h-523.179zM250.411 469.333v-42.667h523.179v42.667h-523.179zM250.411 336.597v-42.752h523.179v42.752h-523.179z" />
<glyph unicode="&#xe91a;" glyph-name="tertium-social-behance" d="M242.133 616.661v-337.323h185.515c0 0 92.8-2.859 92.8 101.248 0 0 6.827 79.701-60.459 79.701 0 0 50.944 3.925 50.944 65.024 0 61.013-34.517 91.093-87.467 91.093l-181.333 0.256zM596.352 582.955v-33.835h134.827v33.835h-134.827zM309.547 566.101h92.757c0 0 31.829-0.555 31.829-41.685 0-42.624-31.829-42.709-31.829-42.709h-92.757v84.395zM663.765 532.395c-126.72 0-126.464-126.592-126.464-126.592s-8.448-126.464 126.464-126.464c0 0 117.973 0.085 117.973 101.248h-60.587c0 0-6.827-50.56-57.387-50.56 0 0-60.075-0.043-60.075 67.413h178.176c0 33.749-0.043 134.955-118.101 134.955v0zM663.765 481.707c51.669 0 57.387-50.56 57.387-50.56h-117.461c0 0 8.363 50.56 60.075 50.56zM309.547 431.147h101.248c0 0 50.56-0.512 50.56-50.56 0.043-50.091-43.221-50.56-50.56-50.56h-101.248v101.12z" />
<glyph unicode="&#xe91b;" glyph-name="tertium-social-github" d="M513.621 759.723c-21.163-0.256-43.136-2.517-65.792-6.997-305.152-60.715-350.464-486.4-64.512-606.421 40.789-17.152 45.141-14.592 46.635 27.136 1.237 35.2 1.195 35.2-27.947 34.987-46.379-0.256-63.189 9.131-81.749 45.739-5.973 11.776-18.603 28.501-27.989 37.077-19.584 17.92-18.517 27.392 2.56 22.784 19.072-4.224 30.379-12.587 43.435-32.299 26.539-40.149 85.973-48.128 97.237-13.099 2.731 8.576 7.723 18.773 11.093 22.613 5.504 6.315 4.053 7.296-14.507 10.069-105.472 15.829-164.011 138.197-106.624 222.805 9.344 13.739 7.424 18.688 8.192 42.453 1.024 31.36 9.771 55.253 9.771 55.253s19.968 0.896 54.4-8.917c19.883-5.675 26.325-9.685 41.045-14.037 4.693-0.725 9.771-0.512 17.408 0.939 30.165 5.76 84.523 5.589 112.085-0.341 8.747-1.835 14.080-2.56 19.157-1.963 11.392 3.456 18.688 7.211 32.64 13.397 30.677 13.568 59.264 9.429 59.264 9.429s10.325-27.563 9.259-60.416c-0.469-13.696-2.603-19.456 1.707-24.32 67.2-76.8 15.189-210.56-90.411-232.363-25.685-5.291-25.685-5.291-17.024-22.827 7.083-14.293 9.088-29.099 10.965-79.872 2.731-75.733 2.603-75.648 63.445-45.184 309.675 155.051 173.611 607.829-143.744 604.373v0zM304.427 305.707c-1.365-0.043-2.475-0.469-2.987-1.195-0.085-0.128-0.171-0.256-0.213-0.427-0.555-1.493 0.981-3.541 3.627-4.779 2.901-1.323 6.144-1.195 7.211 0.256 0.085 0.128 0.171 0.299 0.213 0.427 0.555 1.536-0.981 3.541-3.584 4.779-1.408 0.64-2.901 0.981-4.267 0.939v0zM319.488 293.589c-0.555 0-1.067-0.128-1.493-0.384-0.128-0.085-0.213-0.171-0.341-0.256-1.28-1.237-0.811-3.968 1.152-6.315 0.171-0.171 0.341-0.384 0.512-0.555 2.091-2.219 4.864-3.157 6.4-2.176 0.128 0.043 0.213 0.128 0.341 0.256 1.28 1.237 0.768 3.925-1.152 6.272-1.536 1.877-3.669 3.115-5.419 3.157v0zM332.032 277.12c-0.427 0-0.853-0.128-1.195-0.299-1.877-1.067-1.621-4.352 0.512-7.296s5.419-4.523 7.296-3.456c1.835 1.067 1.621 4.352-0.512 7.296-1.664 2.347-4.181 3.883-6.101 3.755v0zM347.605 259.627c-0.853-0.043-1.536-0.299-2.005-0.725-0.128-0.128-0.213-0.213-0.299-0.299-1.195-1.579-0.128-4.523 2.432-6.699 2.731-2.389 6.315-3.157 7.893-1.707 0.085 0.085 0.171 0.171 0.256 0.299 1.237 1.579 0.171 4.48-2.389 6.699-1.835 1.579-4.096 2.517-5.888 2.432v0zM370.133 246.912c-1.835-0.085-3.243-0.725-3.797-1.792-0.043-0.085-0.128-0.213-0.171-0.341-0.597-1.92 1.365-4.309 4.523-5.547 3.371-1.323 6.997-0.853 7.979 1.024 0.085 0.128 0.128 0.256 0.171 0.384 0.64 1.877-1.323 4.309-4.48 5.547-1.408 0.512-2.901 0.768-4.224 0.725v0zM425.131 245.717c-1.024-0.043-2.091-0.256-3.115-0.597-3.413-1.237-5.845-3.925-5.376-6.016s3.669-2.816 7.125-1.621c3.413 1.195 5.803 3.883 5.376 6.016-0.341 1.365-1.877 2.219-4.011 2.219v0zM397.696 242.091c-3.243-0.085-5.888-1.536-6.229-3.413-0.043-0.128-0.043-0.256-0.043-0.384-0.043-1.963 2.56-3.712 5.931-3.925 3.627-0.256 6.955 1.237 7.381 3.371 0.384 2.091-2.261 4.053-5.888 4.352-0.384 0-0.768 0.043-1.152 0v0z" />
<glyph unicode="&#xe91c;" glyph-name="tertium-triangle-down" d="M512 264.32l-212.096 367.36h424.192l-212.096-367.36z" />
<glyph unicode="&#xe91d;" glyph-name="tertium-triangle-left" d="M326.613 448l367.36 212.096v-424.192l-367.36 212.096z" />
<glyph unicode="&#xe91e;" glyph-name="tertium-triangle-right" d="M697.387 448l-367.36 212.096v-424.192l367.36 212.096z" />
<glyph unicode="&#xe91f;" glyph-name="tertium-triangle-up" d="M512 631.68l-212.096-367.36h424.192l-212.096 367.36z" />
</font>
</defs>
</svg>
